<?xml version="1.0" encoding="UTF-8" standalone="no"?>
<!-- Created with Inkscape (http://www.inkscape.org/) -->

<svg
   xmlns:dc="http://purl.org/dc/elements/1.1/"
   xmlns:cc="http://creativecommons.org/ns#"
   xmlns:rdf="http://www.w3.org/1999/02/22-rdf-syntax-ns#"
   xmlns:svg="http://www.w3.org/2000/svg"
   xmlns="http://www.w3.org/2000/svg"
   xmlns:sodipodi="http://sodipodi.sourceforge.net/DTD/sodipodi-0.dtd"
   xmlns:inkscape="http://www.inkscape.org/namespaces/inkscape"
   width="126.7"
   height="27"
   id="svg3220"
   version="1.1"
   inkscape:version="0.48.4 r9939"
   sodipodi:docname="logo.svg">
  <defs
     id="defs3222" />
  <sodipodi:namedview
     id="base"
     pagecolor="#ffffff"
     bordercolor="#666666"
     borderopacity="1.0"
     inkscape:pageopacity="0.0"
     inkscape:pageshadow="2"
     inkscape:zoom="2.8"
     inkscape:cx="-10.395308"
     inkscape:cy="129.07143"
     inkscape:document-units="px"
     inkscape:current-layer="layer1"
     showgrid="false"
     borderlayer="true"
     inkscape:showpageshadow="false"
     inkscape:window-width="1855"
     inkscape:window-height="1176"
     inkscape:window-x="65"
     inkscape:window-y="24"
     inkscape:window-maximized="1" />
  <metadata
     id="metadata3225">
    <rdf:RDF>
      <cc:Work
         rdf:about="">
        <dc:format>image/svg+xml</dc:format>
        <dc:type
           rdf:resource="http://purl.org/dc/dcmitype/StillImage" />
        <dc:title />
      </cc:Work>
    </rdf:RDF>
  </metadata>
  <g
     inkscape:label="Layer 1"
     inkscape:groupmode="layer"
     id="layer1"
     transform="translate(0,-1025.3622)">
    <path
       id="path6168"
       style="fill:#ffffff;fill-opacity:1;fill-rule:nonzero;stroke:#cccccc;stroke-width:0.1"
       d="m 19.13812,1034.8454 -3.57624,0 0,10.1295 -2.40126,0 0,-10.1295 -3.5925,0 0,-2.1387 9.57,0 0,2.1387"
       inkscape:connector-curvature="0" />
    <path
       id="path6170"
       style="fill:#ffffff;fill-opacity:1;fill-rule:nonzero;stroke:#cccccc;stroke-width:0.1"
       d="m 20.03063,1032.7066 7.27249,0 0,2.1387 -4.87125,0 0,2.8566 4.43251,0 0,2.1386 -4.43251,0 0,2.9971 4.95875,0 0,2.1373 -7.35999,0 0,-12.2682"
       inkscape:connector-curvature="0" />
    <path
       id="path6172"
       style="fill:#ffffff;fill-opacity:1;fill-rule:nonzero;stroke:#cccccc;stroke-width:0.1"
       d="m 31.71938,1038.736 -3.41625,-6.0293 2.89124,0 1.89251,3.54 0.42125,1.2452 0.40249,-1.2452 1.98,-3.54 2.61125,0 -3.54,5.9073 3.71625,6.3609 -2.85749,0 -2.155,-3.7853 -0.47376,-1.2963 -0.455,1.2963 -2.1725,3.7853 -2.6125,0 3.7675,-6.2389"
       inkscape:connector-curvature="0" />
    <path
       id="path6174"
       style="fill:#ffffff;fill-opacity:1;fill-rule:nonzero;stroke:#cccccc;stroke-width:0.1"
       d="m 48.50938,1034.8454 -3.57501,0 0,10.1295 -2.40125,0 0,-10.1295 -3.59249,0 0,-2.1387 9.56875,0 0,2.1387"
       inkscape:connector-curvature="0" />
    <path
       id="path6176"
       style="fill:#ffffff;fill-opacity:1;fill-rule:nonzero;stroke:#cccccc;stroke-width:0.1"
       d="m 53.22188,1040.4181 -4.03,-7.7114 2.85624,0 2.24376,4.6094 0.24499,1.2979 0.0875,0 0.26249,-1.332 2.17376,-4.5753 2.57624,0 -4.01374,7.6944 0,4.5738 -2.40126,0 0,-4.5568"
       inkscape:connector-curvature="0" />
    <path
       id="path6178"
       style="fill:#bbbcbd;fill-opacity:1;fill-rule:nonzero;stroke:#cccccc;stroke-width:0.1"
       d="m 57.91937,1043.8176 c 0,-0.4077 0.12875,-0.7325 0.38626,-0.9717 0.25625,-0.2393 0.595,-0.3599 1.015,-0.3599 0.44375,0 0.795,0.1206 1.0525,0.3599 0.25625,0.2392 0.38625,0.564 0.38625,0.9717 0,0.4101 -0.13,0.7363 -0.38625,0.9813 -0.2575,0.2456 -0.60875,0.3688 -1.0525,0.3688 -0.42001,0 -0.75875,-0.1232 -1.015,-0.3688 -0.25751,-0.2451 -0.38626,-0.5713 -0.38626,-0.9813"
       inkscape:connector-curvature="0" />
    <path
       id="path6180"
       style="fill:#bbbcbd;fill-opacity:1;fill-rule:nonzero;stroke:#cccccc;stroke-width:0.1"
       d="m 61.80937,1038.841 c 0,-2.0449 0.44876,-3.6181 1.34875,-4.7231 0.89875,-1.1035 2.18501,-1.6563 3.85375,-1.6563 0.8775,0 1.64251,0.1524 2.2975,0.4565 0.65375,0.3038 1.19625,0.7358 1.62876,1.2965 0.43249,0.5615 0.75499,1.2328 0.96499,2.0151 0.21001,0.7827 0.31501,1.6543 0.31501,2.6113 0,2.0445 -0.45376,3.6191 -1.35751,4.7227 -0.90625,1.1049 -2.19,1.6567 -3.84875,1.6567 -0.88749,0 -1.65874,-0.1528 -2.3125,-0.4555 -0.65375,-0.3038 -1.19375,-0.7359 -1.62125,-1.2974 -0.42625,-0.5605 -0.74499,-1.2319 -0.95374,-2.0156 -0.21,-0.7823 -0.31501,-1.6529 -0.31501,-2.6109 z m 2.52251,0 c 0,0.6201 0.0525,1.189 0.1575,1.709 0.105,0.52 0.26624,0.9669 0.4825,1.3404 0.215,0.3745 0.49249,0.6665 0.83249,0.8765 0.3375,0.2098 0.74125,0.3158 1.2075,0.3158 0.85375,0 1.51375,-0.333 1.9825,-0.9994 0.46625,-0.6655 0.7,-1.7472 0.7,-3.2423 0,-0.5956 -0.05,-1.1499 -0.14875,-1.665 -0.1,-0.5141 -0.25375,-0.9634 -0.465,-1.3491 -0.21,-0.3858 -0.485,-0.686 -0.82249,-0.9019 -0.34,-0.2163 -0.755,-0.3248 -1.24625,-0.3248 -0.85125,0 -1.5125,0.3419 -1.97875,1.0255 -0.4675,0.6835 -0.70125,1.7554 -0.70125,3.2153"
       inkscape:connector-curvature="0" />
    <path
       id="path6182"
       style="fill:#bbbcbd;fill-opacity:1;fill-rule:nonzero;stroke:#cccccc;stroke-width:0.1"
       d="m 73.58438,1032.8302 c 0.26875,-0.046 0.55874,-0.09 0.8675,-0.1317 0.31124,-0.041 0.62,-0.072 0.92999,-0.097 0.30876,-0.023 0.61001,-0.04 0.90251,-0.052 0.29124,-0.011 0.56124,-0.017 0.80624,-0.017 0.5725,0 1.135,0.052 1.69001,0.1571 0.55624,0.105 1.05125,0.2871 1.49,0.5435 0.43875,0.2574 0.78874,0.6104 1.0525,1.0605 0.26249,0.4493 0.39375,1.0133 0.39375,1.691 0,1.0044 -0.23375,1.8223 -0.70001,2.4536 -0.4675,0.6308 -1.09375,1.0693 -1.87749,1.3144 l 0.86,0.5435 2.80375,4.6788 -2.76875,0 -2.78625,-4.8023 -1.26251,-0.2271 0,5.0293 -2.40124,0 0,-12.1447 z m 3.68,1.8394 c -0.245,0 -0.48626,0.01 -0.72626,0.019 -0.24,0.011 -0.42374,0.034 -0.5525,0.069 l 0,3.5586 1.01751,0 c 0.665,0 1.19749,-0.1528 1.59375,-0.4565 0.39749,-0.3027 0.59624,-0.8057 0.59624,-1.5063 0,-0.5264 -0.16374,-0.9375 -0.49124,-1.2369 -0.3275,-0.2978 -0.805,-0.4468 -1.4375,-0.4468"
       inkscape:connector-curvature="0" />
    <path
       id="path6184"
       style="fill:#bbbcbd;fill-opacity:1;fill-rule:nonzero;stroke:#cccccc;stroke-width:0.1"
       d="m 87.53438,1038.5784 4.57375,0 0,5.4677 c -0.49,0.4086 -1.075,0.7065 -1.76,0.8934 -0.6825,0.1866 -1.3575,0.2808 -2.025,0.2808 -0.7825,0 -1.50875,-0.1234 -2.18125,-0.3677 -0.67125,-0.2451 -1.2525,-0.6283 -1.7425,-1.1483 -0.49125,-0.5202 -0.87625,-1.1832 -1.1575,-1.9889 -0.28125,-0.8066 -0.42,-1.7636 -0.42,-2.8745 0,-1.1562 0.16625,-2.1401 0.49875,-2.9531 0.33249,-0.8115 0.77125,-1.4721 1.31375,-1.98 0.54375,-0.5078 1.15374,-0.8764 1.8325,-1.1044 0.6775,-0.2271 1.36625,-0.3418 2.0675,-0.3418 0.70124,0 1.3175,0.054 1.84875,0.1588 0.5325,0.1048 0.95499,0.2156 1.26999,0.332 l -0.49,2.0151 c -0.29125,-0.1158 -0.61875,-0.206 -0.98125,-0.271 -0.3625,-0.064 -0.82375,-0.096 -1.385,-0.096 -0.5025,0 -0.96374,0.076 -1.38375,0.2282 -0.42125,0.1513 -0.78625,0.4003 -1.095,0.7446 -0.30999,0.3442 -0.54874,0.7861 -0.71875,1.3232 -0.17,0.5372 -0.25375,1.1914 -0.25375,1.9629 0,0.7363 0.0813,1.3696 0.245,1.9009 0.16375,0.5322 0.39,0.9703 0.68375,1.3144 0.29125,0.3442 0.63375,0.5996 1.025,0.7632 0.39125,0.1636 0.80875,0.2451 1.2525,0.2451 0.30375,0 0.60125,-0.038 0.89375,-0.1147 0.29125,-0.076 0.5375,-0.189 0.73625,-0.3418 l 0,-2.313 -2.6475,-0.2807 0,-1.4541"
       inkscape:connector-curvature="0" />
    <path
       id="path6186"
       style="fill:#bbbcbd;fill-opacity:1;fill-rule:nonzero;stroke:#cccccc;stroke-width:0.1"
       d="m 93.21312,1043.8176 c 0,-0.4077 0.12876,-0.7325 0.38625,-0.9717 0.25626,-0.2393 0.59626,-0.3599 1.01626,-0.3599 0.44374,0 0.79375,0.1206 1.05125,0.3599 0.25624,0.2392 0.38625,0.564 0.38625,0.9717 0,0.4101 -0.13001,0.7363 -0.38625,0.9813 -0.2575,0.2456 -0.60751,0.3688 -1.05125,0.3688 -0.42,0 -0.76,-0.1232 -1.01626,-0.3688 -0.25749,-0.2451 -0.38625,-0.5713 -0.38625,-0.9813"
       inkscape:connector-curvature="0" />
    <path
       id="path6188"
       style="fill:#bbbcbd;fill-opacity:1;fill-rule:nonzero;stroke:#cccccc;stroke-width:0.1"
       d="m 104.14812,1032.7066 2.27876,0 0,7.9224 c 0,0.7949 -0.105,1.477 -0.31501,2.0498 -0.21125,0.5723 -0.50375,1.046 -0.87625,1.4195 -0.37375,0.375 -0.82999,0.6483 -1.3675,0.8242 -0.5375,0.1743 -1.1275,0.2622 -1.77,0.2622 -3.1075,0 -4.66124,-1.4194 -4.66124,-4.2578 l 0,-8.2203 2.39999,0 0,7.7467 c 0,0.48 0.0437,0.8852 0.1325,1.2182 0.0875,0.3335 0.22375,0.602 0.41125,0.8057 0.18625,0.2051 0.42125,0.3506 0.70126,0.4385 0.27999,0.088 0.60749,0.1318 0.98,0.1318 0.73624,0 1.26874,-0.2051 1.59624,-0.6142 0.3275,-0.4088 0.49,-1.0679 0.49,-1.98 l 0,-7.7467"
       inkscape:connector-curvature="0" />
    <path
       id="path6190"
       style="fill:#bbbcbd;fill-opacity:1;fill-rule:nonzero;stroke:#cccccc;stroke-width:0.1"
       d="m 113.82188,1042.259 -3.76751,0 -0.92874,2.7158 -2.40126,0 4.41625,-12.3544 1.77,0 4.41625,12.3544 -2.52375,0 -0.98124,-2.7158 z m -3.155,-1.9278 2.62999,0 -0.91249,-2.7343 -0.36751,-1.9274 -0.0875,0 -0.36874,1.9445 -0.89375,2.7172"
       inkscape:connector-curvature="0" />
  </g>
</svg>
